<?xml version="1.0" encoding="UTF-8" standalone="no"?>
<svg
   width="16"
   height="16"
   viewBox="0 0 16 16"
   fill="none"
   version="1.1"
   id="svg134"
   sodipodi:docname="bullet-values.svg"
   inkscape:version="1.2 (dc2aeda, 2022-05-15)"
   xmlns:inkscape="http://www.inkscape.org/namespaces/inkscape"
   xmlns:sodipodi="http://sodipodi.sourceforge.net/DTD/sodipodi-0.dtd"
   xmlns="http://www.w3.org/2000/svg"
   xmlns:svg="http://www.w3.org/2000/svg">
  <defs
     id="defs138" />
  <sodipodi:namedview
     id="namedview136"
     pagecolor="#ffffff"
     bordercolor="#000000"
     borderopacity="0.25"
     inkscape:showpageshadow="2"
     inkscape:pageopacity="0.0"
     inkscape:pagecheckerboard="0"
     inkscape:deskcolor="#d1d1d1"
     showgrid="false"
     inkscape:zoom="14.75"
     inkscape:cx="7.6949153"
     inkscape:cy="8.0338983"
     inkscape:window-width="1512"
     inkscape:window-height="945"
     inkscape:window-x="0"
     inkscape:window-y="37"
     inkscape:window-maximized="0"
     inkscape:current-layer="svg134" />
  <path
     d="M 12.571399,16 H 3.4285732 C 1.5382866,16 0,14.46173 0,12.57146 V 3.4285748 C 0,1.5382911 1.5382866,0 3.4285732,0 h 5.7142931 c 0.3030667,0 0.5938,0.12040824 0.8081333,0.33473533 0.2143334,0.21432717 0.3347334,0.50502097 0.3347334,0.80812157 0,0.3031073 -0.1204,0.5938012 -0.3347334,0.8081283 C 9.7366663,2.1653123 9.445933,2.2857192 9.1428663,2.2857192 H 3.4285732 c -0.63086,0 -1.14286,0.513141 -1.14286,1.1428556 V 12.57146 c 0,0.629735 0.512,1.142868 1.14286,1.142868 h 9.1428258 c 0.630866,0 1.142867,-0.513133 1.142867,-1.142868 V 9.1428527 c 0,-0.3030672 0.1204,-0.593801 0.334733,-0.8080682 0.214334,-0.2143337 0.505067,-0.3348006 0.808134,-0.3348006 0.303133,0 0.593799,0.1204669 0.808133,0.3348006 C 15.8796,8.5490517 16,8.8397855 16,9.1428527 V 12.57146 C 16,14.46173 14.461733,16 12.571399,16 Z M 9.3325997,11.237724 c -0.4,0 -0.7874667,-0.158867 -1.0754667,-0.446868 L 5.2079998,7.74285 C 4.9337332,7.4545827 4.7830397,7.0705154 4.7881065,6.6726479 4.7931664,6.2747538 4.9535799,5.8946263 5.2350865,5.6134124 5.5165998,5.3321985 5.8968997,5.1721916 6.294773,5.1675516 6.6926665,5.1629115 7.0765997,5.3140118 7.3645996,5.5885858 L 8.9828663,7.2079823 12.954266,0.9737166 c 0.09387,-0.1808937 0.223067,-0.3411406 0.379933,-0.4712542 0.156867,-0.13011366 0.3382,-0.22745785 0.533334,-0.28627864 0.195066,-0.0588214 0.400066,-0.0779249 0.602666,-0.0561808 0.202667,0.0217447 0.398867,0.0838948 0.577067,0.18277903 0.178199,0.0988802 0.334733,0.23248711 0.460467,0.39292081 0.125667,0.1604336 0.217866,0.344434 0.271199,0.5411277 0.0534,0.1966871 0.06673,0.4020808 0.03933,0.6040279 -0.02741,0.2019471 -0.095,0.3963474 -0.198867,0.5717145 l -4.953133,8.0000161 c -0.114334,0.206201 -0.275067,0.383 -0.4694,0.516467 -0.1944,0.133467 -0.4170666,0.220001 -0.6505999,0.252667 z"
     fill="#0889d4"
     id="path132"
     style="stroke-width:0.666668" />
</svg>
