<svg width="22" height="22" viewBox="0 0 22 22" fill="none" xmlns="http://www.w3.org/2000/svg">
<path d="M6.91856 19.9382C15.2205 19.9382 19.7613 13.0601 19.7613 7.09544C19.7613 6.90008 19.7613 6.7056 19.7481 6.512C20.6315 5.87304 21.394 5.08189 22 4.1756C21.1763 4.5408 20.3024 4.78019 19.4075 4.88576C20.3498 4.32172 21.0551 3.43447 21.3919 2.3892C20.5059 2.915 19.5366 3.28554 18.5258 3.4848C17.8452 2.76116 16.9452 2.28198 15.9648 2.12142C14.9845 1.96086 13.9786 2.12787 13.1028 2.59659C12.227 3.06532 11.53 3.80964 11.1198 4.71437C10.7097 5.61909 10.6091 6.63379 10.8337 7.60144C9.03915 7.51142 7.28361 7.04505 5.681 6.2326C4.07839 5.42015 2.66453 4.27979 1.5312 2.88552C0.954001 3.87918 0.777216 5.05548 1.03684 6.1749C1.29647 7.29433 1.97298 8.27273 2.92864 8.91088C2.2103 8.88983 1.50759 8.69604 0.88 8.34592V8.40312C0.880285 9.44523 1.24103 10.4552 1.90105 11.2616C2.56107 12.0681 3.47972 12.6214 4.5012 12.8278C3.83669 13.009 3.13947 13.0355 2.46312 12.9052C2.75166 13.802 3.31323 14.5862 4.0693 15.1482C4.82538 15.7102 5.73817 16.0219 6.68008 16.0398C5.74424 16.7754 4.67254 17.3192 3.5263 17.6403C2.38006 17.9613 1.18178 18.0532 0 17.9106C2.06418 19.2352 4.46593 19.9379 6.91856 19.9346" fill="white"/>
</svg>
