<?xml version="1.0" encoding="UTF-8" standalone="no"?>
<!-- Created with Inkscape (http://www.inkscape.org/) -->

<svg
   width="350"
   height="250"
   viewBox="0 0 92.604165 66.145833"
   version="1.1"
   id="svg20533"
   inkscape:version="1.2 (dc2aeda, 2022-05-15)"
   sodipodi:docname="logo_imobiliaria_branca.svg"
   inkscape:export-filename="../../Downloads/logo_imobil.png"
   inkscape:export-xdpi="96"
   inkscape:export-ydpi="96"
   xmlns:inkscape="http://www.inkscape.org/namespaces/inkscape"
   xmlns:sodipodi="http://sodipodi.sourceforge.net/DTD/sodipodi-0.dtd"
   xmlns="http://www.w3.org/2000/svg"
   xmlns:svg="http://www.w3.org/2000/svg">
  <sodipodi:namedview
     id="namedview20535"
     pagecolor="#ffffff"
     bordercolor="#000000"
     borderopacity="0.25"
     inkscape:showpageshadow="2"
     inkscape:pageopacity="0.0"
     inkscape:pagecheckerboard="0"
     inkscape:deskcolor="#d1d1d1"
     inkscape:document-units="mm"
     showgrid="false"
     inkscape:zoom="0.8455693"
     inkscape:cx="361.29505"
     inkscape:cy="154.33389"
     inkscape:window-width="1512"
     inkscape:window-height="917"
     inkscape:window-x="0"
     inkscape:window-y="65"
     inkscape:window-maximized="0"
     inkscape:current-layer="g20513" />
  <defs
     id="defs20530" />
  <g
     inkscape:label="Camada 1"
     inkscape:groupmode="layer"
     id="layer1">
    <g
       id="g20513"
       transform="matrix(2.9579501,0,0,2.99253,-259.49637,-463.84808)">
      <path
         id="path80"
         style="fill:#ffffff;fill-opacity:1;fill-rule:nonzero;stroke:none;stroke-width:0.0352778"
         d="m 114.38183,175.36044 v -11.9634 l -8.1975,8.19714 v 3.76626 h -4.49474 v -8.15587 l -8.19679,-8.19644 v 16.35231 h -5.764354 v 1.58644 h 7.350443 v -14.10864 l 1.110544,1.11019 v 13.1572 h 1.586795 v -11.57076 l 2.326922,2.32692 v 9.08509 h 7.66798 v -4.69547 l 2.44581,-2.44581 v 7.30003 h 1.58644 v -8.88683 l 0.99166,-0.99166 v 9.71974 h 6.24028 v -1.58644 h -4.65349" />
      <path
         id="path82"
         style="fill:#ffffff;fill-opacity:1;fill-rule:nonzero;stroke:none;stroke-width:0.0352778"
         d="m 103.89763,157.246 7.21254,7.2129 1.12219,-1.12184 -8.33473,-8.33508 -6.153505,6.15351 1.121834,1.12183 5.031671,-5.03132" />
      <path
         id="path84"
         style="fill:#ffffff;fill-opacity:1;fill-rule:nonzero;stroke:none;stroke-width:0.0352778"
         d="m 103.4563,161.17489 h -1.40335 v 1.403 h 1.40335 v -1.403" />
      <path
         id="path86"
         style="fill:#ffffff;fill-opacity:1;fill-rule:nonzero;stroke:none;stroke-width:0.0352778"
         d="m 105.78746,161.17489 h -1.40265 v 1.403 h 1.40265 v -1.403" />
      <path
         id="path88"
         style="fill:#ffffff;fill-opacity:1;fill-rule:nonzero;stroke:none;stroke-width:0.0352778"
         d="m 102.05295,164.78522 h 1.40335 v -1.40265 h -1.40335 v 1.40265" />
      <path
         id="path90"
         style="fill:#ffffff;fill-opacity:1;fill-rule:nonzero;stroke:none;stroke-width:0.0352778"
         d="m 104.38481,164.78522 h 1.40265 v -1.40265 h -1.40265 v 1.40265" />
    </g>
  </g>
</svg>
